<?xml version="1.0" encoding="UTF-8"?>
<svg width="397px" height="405px" viewBox="0 0 397 405" version="1.1" xmlns="http://www.w3.org/2000/svg" xmlns:xlink="http://www.w3.org/1999/xlink">
    <!-- Generator: Sketch 52.5 (67469) - http://www.bohemiancoding.com/sketch -->
    <title>Logo Copy 9</title>
    <desc>Created with Sketch.</desc>
    <g id="Logo-Copy-9" stroke="none" stroke-width="1" fill="none" fill-rule="evenodd">
        <rect fill="#FFFFFF" x="0" y="0" width="397" height="405"></rect>
        <g id="Group-2" transform="translate(-26.000000, -73.000000)">
            <path d="M137.35396,239.117801 L137.35396,236.223822 L137.881188,203.074607 L137.881188,133.882199 C137.881188,114.939791 154.488861,99.4175393 175.050743,99.4175393 C195.612624,99.4175393 212.220297,114.939791 212.220297,133.882199 L212.220297,201.496073 L208.002475,201.496073 L201.939356,217.018325 L201.939356,243.590314 L211.429455,243.590314 C210.902228,246.484293 210.638614,249.641361 210.638614,252.798429 C210.638614,262.006545 213.011139,269.899215 216.701733,275.950262 C214.065594,279.10733 210.638614,281.212042 207.211634,281.212042 L207.211634,285.684555 C211.956683,285.684555 216.174505,283.579843 219.601485,279.633508 C223.028465,283.316754 227.246287,285.684555 231.991337,285.684555 L231.991337,281.212042 C228.564356,281.212042 225.137376,279.370419 222.501238,275.950262 C226.191832,270.162304 228.564356,262.006545 228.564356,252.798429 C228.564356,249.641361 228.300743,246.484293 227.773515,243.590314 L237,243.590314 L237,217.018325 L230.936881,201.496073 L226.719059,201.496073 L226.719059,133.882199 C226.719059,107.310209 203.52104,86 174.787129,86 C146.316832,86 123.118812,107.573298 123.118812,133.882199 L123.118812,136.776178 L122.591584,169.925393 L122.591584,239.117801 C122.591584,258.060209 105.983911,273.582461 85.4220297,273.582461 C64.8601485,273.582461 48.5160891,258.060209 48.5160891,239.117801 L48.5160891,170.188482 L53.2611386,170.188482 L59.3242574,154.66623 L59.3242574,128.094241 L49.8341584,128.094241 C50.3613861,125.200262 50.625,122.043194 50.625,118.886126 C50.625,109.67801 48.2524752,101.78534 44.5618812,95.7342932 C47.1980198,92.5772251 50.625,90.4725131 54.0519802,90.4725131 L54.0519802,86 C49.3069307,86 45.0891089,88.104712 41.6621287,92.0510471 C38.2351485,88.367801 34.0173267,86 29.2722772,86 L29.2722772,90.4725131 C32.6992574,90.4725131 36.1262376,92.3141361 38.7623762,95.7342932 C35.0717822,101.522251 32.6992574,109.67801 32.6992574,118.886126 C32.6992574,122.043194 32.9628713,125.200262 33.490099,128.094241 L24,128.094241 L24,154.929319 L30.0631188,170.451571 L33.2264851,170.451571 L33.2264851,239.117801 C33.2264851,265.689791 56.424505,287 85.1584158,287 C114.155941,287 137.35396,265.426702 137.35396,239.117801 Z M223.819307,252.798429 C223.819307,259.901832 222.237624,266.479058 219.337871,271.740838 C216.701733,266.742147 214.856436,260.164921 214.856436,252.798429 C214.856436,249.641361 215.12005,246.484293 215.910891,243.590314 L222.764851,243.590314 C223.555693,246.484293 223.819307,249.641361 223.819307,252.798429 Z M37.4443069,118.886126 C37.4443069,111.782723 39.0259901,105.205497 41.9257426,99.9437173 C44.5618812,104.942408 46.4071782,111.519634 46.4071782,118.886126 C46.4071782,122.043194 46.1435644,125.200262 45.3527228,128.094241 L38.4987624,128.094241 C37.9715347,125.200262 37.4443069,122.306283 37.4443069,118.886126 Z" id="Shape" fill="#9B9B9B" fill-rule="nonzero" transform="translate(130.500000, 186.500000) rotate(-90.000000) translate(-130.500000, -186.500000) "></path>
            <g id="Group">
                <rect id="Rectangle" stroke="#FFFFFF" fill="#FFFFFF" x="0.5" y="225.5" width="52" height="89"></rect>
                <rect id="Rectangle" stroke="#FFFFFF" fill="#FFFFFF" x="128.5" y="56.5" width="112" height="89"></rect>
                <text id="hub" font-family="HelveticaNeue-Bold, Helvetica Neue" font-size="216" font-weight="bold" fill="#50E3C2">
                    <tspan x="31" y="469.5">hub</tspan>
                </text>
                <text id="B" font-family="HelveticaNeue-Bold, Helvetica Neue" font-size="300" font-weight="bold" fill="#58A4FE">
                    <tspan x="217" y="293">B</tspan>
                </text>
                <path d="M123,97.5 L217,97.5" id="Path-2" stroke="#9B9B9B" stroke-width="15"></path>
                <path d="M57.9462961,363.23217 L57.9462961,257" id="Path-3" stroke="#50E3C2" stroke-width="32"></path>
                <path d="M42.5519536,361.913694 L42.5519536,469.895674" id="Path-4" stroke="#50E3C2"></path>
                <path d="M73.5,362 L73.5,469.981981" id="Path-4" stroke="#50E3C2"></path>
                <polygon id="Path-5" stroke="#9B9B9B" fill="#9B9B9B" points="197.591321 86.1737499 197.591321 108.408625 211.859063 115 237.787658 115 237.787658 80 211.859063 80"></polygon>
            </g>
        </g>
    </g>
</svg>